<svg xmlns="http://www.w3.org/2000/svg" xmlns:xlink="http://www.w3.org/1999/xlink" version="1.1" data-diagram-type="DESCRIPTION" style="width:1632px;height:1148px;" width="1632px" height="1148px" viewBox="0 0 1632 1148" zoomAndPan="magnify" preserveAspectRatio="none" contentStyleType="text/css"><?plantuml 1.2026.7beta8?><defs/><g font-family="sans-serif" lengthAdjust="spacing"><!--cluster LAYER_STACK--><g class="cluster" data-qualified-name="LAYER_STACK" id="ent0006" data-source-line="39"><path d="M8.5,99.89 L14.374,99.89 A3.75,3.75 0 0 1 16.874,102.39 L23.874,122.187 L1614.5,122.187 A2.5,2.5 0 0 1 1617,124.687 L1617,1131.25 A2.5,2.5 0 0 1 1614.5,1133.75 L8.5,1133.75 A2.5,2.5 0 0 1 6,1131.25 L6,102.39 A2.5,2.5 0 0 1 8.5,99.89" fill="none"/><line x1="6" y1="122.187" x2="23.874" y2="122.187" style="stroke:none;"/></g><!--cluster MODEL--><g class="cluster" data-qualified-name="LAYER_STACK.MODEL" id="ent0007" data-source-line="41"><path d="M136.5,166.89 L422.436,166.89 A3.75,3.75 0 0 1 424.936,169.39 L431.936,205.484 L1484.5,205.484 A2.5,2.5 0 0 1 1487,207.984 L1487,677.47 A2.5,2.5 0 0 1 1484.5,679.97 L136.5,679.97 A2.5,2.5 0 0 1 134,677.47 L134,169.39 A2.5,2.5 0 0 1 136.5,166.89" style="stroke:#ADFF2F;stroke-width:2;" fill="none"/><line x1="134" y1="205.484" x2="431.936" y2="205.484" style="stroke:#ADFF2F;stroke-width:2;"/><text x="256.207" y="181.885" fill="#000" font-size="14" textLength="48.521" font-weight="700">model</text><text x="138" y="198.182" fill="#000" font-size="14" textLength="284.936" font-weight="700">Domain model and data persistence</text></g><!--cluster DOMAIN--><g class="cluster" data-qualified-name="LAYER_STACK.MODEL.DOMAIN" id="ent0008" data-source-line="43"><path d="M337.5,241.89 L572.063,241.89 A3.75,3.75 0 0 1 574.563,244.39 L581.563,280.484 L1436.5,280.484 A2.5,2.5 0 0 1 1439,282.984 L1439,426.58 A2.5,2.5 0 0 1 1436.5,429.08 L337.5,429.08 A2.5,2.5 0 0 1 335,426.58 L335,244.39 A2.5,2.5 0 0 1 337.5,241.89" style="stroke:#228B22;stroke-width:2;" fill="none"/><line x1="335" y1="280.484" x2="581.563" y2="280.484" style="stroke:#228B22;stroke-width:2;"/><text x="426.562" y="256.885" fill="#000" font-size="14" textLength="58.44" font-weight="700">domain</text><text x="339" y="273.182" fill="#000" font-size="14" textLength="233.563" font-weight="700">JPA-managed domain entities</text></g><!--cluster PERSISTENCE--><g class="cluster" data-qualified-name="LAYER_STACK.MODEL.PERSISTENCE" id="ent0020" data-source-line="61"><path d="M176.5,469.08 L549.382,469.08 A3.75,3.75 0 0 1 551.882,471.58 L558.882,507.674 L1436.5,507.674 A2.5,2.5 0 0 1 1439,510.174 L1439,637.47 A2.5,2.5 0 0 1 1436.5,639.97 L176.5,639.97 A2.5,2.5 0 0 1 174,637.47 L174,471.58 A2.5,2.5 0 0 1 176.5,469.08" style="stroke:#DAA520;stroke-width:2;" fill="none"/><line x1="174" y1="507.674" x2="558.882" y2="507.674" style="stroke:#DAA520;stroke-width:2;"/><text x="318.024" y="484.075" fill="#000" font-size="14" textLength="91.834" font-weight="700">persistence</text><text x="178" y="500.372" fill="#000" font-size="14" textLength="371.882" font-weight="700">Spring Data repositories and query projections</text></g><!--cluster SERVICE--><g class="cluster" data-qualified-name="LAYER_STACK.SERVICE" id="ent0033" data-source-line="82"><path d="M40.5,719.97 L366.316,719.97 A3.75,3.75 0 0 1 368.816,722.47 L375.816,758.564 L1582.5,758.564 A2.5,2.5 0 0 1 1585,761.064 L1585,888.36 A2.5,2.5 0 0 1 1582.5,890.86 L40.5,890.86 A2.5,2.5 0 0 1 38,888.36 L38,722.47 A2.5,2.5 0 0 1 40.5,719.97" style="stroke:#FF8C00;stroke-width:2;" fill="none"/><line x1="38" y1="758.564" x2="375.816" y2="758.564" style="stroke:#FF8C00;stroke-width:2;"/><text x="176.183" y="734.965" fill="#000" font-size="14" textLength="56.451" font-weight="700">service</text><text x="42" y="751.262" fill="#000" font-size="14" textLength="324.816" font-weight="700">Business logic and application workflows</text></g><!--cluster WEB--><g class="cluster" data-qualified-name="LAYER_STACK.WEB" id="ent0047" data-source-line="102"><path d="M113.5,930.86 L357.162,930.86 A3.75,3.75 0 0 1 359.662,933.36 L366.662,969.454 L1530.5,969.454 A2.5,2.5 0 0 1 1533,971.954 L1533,1099.25 A2.5,2.5 0 0 1 1530.5,1101.75 L113.5,1101.75 A2.5,2.5 0 0 1 111,1099.25 L111,933.36 A2.5,2.5 0 0 1 113.5,930.86" style="stroke:#9370D8;stroke-width:2;" fill="none"/><line x1="111" y1="969.454" x2="366.662" y2="969.454" style="stroke:#9370D8;stroke-width:2;"/><text x="220.106" y="945.855" fill="#000" font-size="14" textLength="32.45" font-weight="700">web</text><text x="115" y="962.152" fill="#000" font-size="14" textLength="242.662" font-weight="700">Spring MVC presentation layer</text></g><!--entity D_APPUSER--><g class="entity" data-qualified-name="LAYER_STACK.MODEL.DOMAIN.D_APPUSER" id="ent0009" data-source-line="46"><path d="M369.61,308.89 L474.382,308.89 A3.75,3.75 0 0 1 476.882,311.39 L483.882,331.187 L498.382,331.187 A2.5,2.5 0 0 1 500.882,333.687 L500.882,394.578 A2.5,2.5 0 0 1 498.382,397.078 L369.61,397.078 A2.5,2.5 0 0 1 367.11,394.578 L367.11,311.39 A2.5,2.5 0 0 1 369.61,308.89" style="stroke:#181818;stroke-width:2;" fill="none"/><line x1="367.11" y1="331.187" x2="483.882" y2="331.187" style="stroke:#181818;stroke-width:2;"/><text x="377.11" y="324.885" fill="#000" font-size="14" textLength="91.772" font-weight="700">D_APPUSER</text><text x="389.688" y="351.182" fill="#000" font-size="14" textLength="66.979" font-weight="700">AppUser</text><text x="377.11" y="367.479" fill="#000" font-size="14" textLength="92.135">User account</text><text x="394.371" y="383.776" fill="#000" font-size="14" textLength="57.613">and role</text></g><!--entity D_STUDENT--><g class="entity" data-qualified-name="LAYER_STACK.MODEL.DOMAIN.D_STUDENT" id="ent0010" data-source-line="47"><path d="M538.45,317.04 L643.523,317.04 A3.75,3.75 0 0 1 646.023,319.54 L653.023,339.337 L667.541,339.337 A2.5,2.5 0 0 1 670.041,341.837 L670.041,386.431 A2.5,2.5 0 0 1 667.541,388.931 L538.45,388.931 A2.5,2.5 0 0 1 535.95,386.431 L535.95,319.54 A2.5,2.5 0 0 1 538.45,317.04" style="stroke:#181818;stroke-width:2;" fill="none"/><line x1="535.95" y1="339.337" x2="653.023" y2="339.337" style="stroke:#181818;stroke-width:2;"/><text x="545.95" y="333.035" fill="#000" font-size="14" textLength="92.073" font-weight="700">D_STUDENT</text><text x="566.536" y="359.332" fill="#000" font-size="14" textLength="62.918" font-weight="700">Student</text><text x="545.95" y="375.629" fill="#000" font-size="14" textLength="104.091">Student profile</text></g><!--entity D_TEACHER--><g class="entity" data-qualified-name="LAYER_STACK.MODEL.DOMAIN.D_TEACHER" id="ent0011" data-source-line="48"><path d="M707.67,317.04 L811.574,317.04 A3.75,3.75 0 0 1 814.074,319.54 L821.074,339.337 L838.333,339.337 A2.5,2.5 0 0 1 840.833,341.837 L840.833,386.431 A2.5,2.5 0 0 1 838.333,388.931 L707.67,388.931 A2.5,2.5 0 0 1 705.17,386.431 L705.17,319.54 A2.5,2.5 0 0 1 707.67,317.04" style="stroke:#181818;stroke-width:2;" fill="none"/><line x1="705.17" y1="339.337" x2="821.074" y2="339.337" style="stroke:#181818;stroke-width:2;"/><text x="715.17" y="333.035" fill="#000" font-size="14" textLength="90.904" font-weight="700">D_TEACHER</text><text x="736.423" y="359.332" fill="#000" font-size="14" textLength="63.157" font-weight="700">Teacher</text><text x="715.17" y="375.629" fill="#000" font-size="14" textLength="105.663">Teacher profile</text></g><!--entity D_GROUP--><g class="entity" data-qualified-name="LAYER_STACK.MODEL.DOMAIN.D_GROUP" id="ent0012" data-source-line="49"><path d="M878.48,317.04 L965.903,317.04 A3.75,3.75 0 0 1 968.403,319.54 L975.403,339.337 L1019.52,339.337 A2.5,2.5 0 0 1 1022.02,341.837 L1022.02,386.431 A2.5,2.5 0 0 1 1019.52,388.931 L878.48,388.931 A2.5,2.5 0 0 1 875.98,386.431 L875.98,319.54 A2.5,2.5 0 0 1 878.48,317.04" style="stroke:#181818;stroke-width:2;" fill="none"/><line x1="875.98" y1="339.337" x2="975.403" y2="339.337" style="stroke:#181818;stroke-width:2;"/><text x="885.98" y="333.035" fill="#000" font-size="14" textLength="74.423" font-weight="700">D_GROUP</text><text x="897.054" y="359.332" fill="#000" font-size="14" textLength="93.892" font-weight="700">StudyGroup</text><text x="885.98" y="375.629" fill="#000" font-size="14" textLength="116.04">University group</text></g><!--entity D_COURSE--><g class="entity" data-qualified-name="LAYER_STACK.MODEL.DOMAIN.D_COURSE" id="ent0013" data-source-line="50"><path d="M1059.56,317.04 L1155.152,317.04 A3.75,3.75 0 0 1 1157.652,319.54 L1164.652,339.337 L1206.431,339.337 A2.5,2.5 0 0 1 1208.931,341.837 L1208.931,386.431 A2.5,2.5 0 0 1 1206.431,388.931 L1059.56,388.931 A2.5,2.5 0 0 1 1057.06,386.431 L1057.06,319.54 A2.5,2.5 0 0 1 1059.56,317.04" style="stroke:#181818;stroke-width:2;" fill="none"/><line x1="1057.06" y1="339.337" x2="1164.652" y2="339.337" style="stroke:#181818;stroke-width:2;"/><text x="1067.06" y="333.035" fill="#000" font-size="14" textLength="82.592" font-weight="700">D_COURSE</text><text x="1100.7" y="359.332" fill="#000" font-size="14" textLength="54.592" font-weight="700">Course</text><text x="1067.06" y="375.629" fill="#000" font-size="14" textLength="121.871">University course</text></g><!--entity D_LESSON--><g class="entity" data-qualified-name="LAYER_STACK.MODEL.DOMAIN.D_LESSON" id="ent0014" data-source-line="51"><path d="M1246.4,317.04 L1340.29,317.04 A3.75,3.75 0 0 1 1342.79,319.54 L1349.79,339.337 L1393.599,339.337 A2.5,2.5 0 0 1 1396.099,341.837 L1396.099,386.431 A2.5,2.5 0 0 1 1393.599,388.931 L1246.4,388.931 A2.5,2.5 0 0 1 1243.9,386.431 L1243.9,319.54 A2.5,2.5 0 0 1 1246.4,317.04" style="stroke:#181818;stroke-width:2;" fill="none"/><line x1="1243.9" y1="339.337" x2="1349.79" y2="339.337" style="stroke:#181818;stroke-width:2;"/><text x="1253.9" y="333.035" fill="#000" font-size="14" textLength="80.89" font-weight="700">D_LESSON</text><text x="1287.666" y="359.332" fill="#000" font-size="14" textLength="54.667" font-weight="700">Lesson</text><text x="1253.9" y="375.629" fill="#000" font-size="14" textLength="122.199">Scheduled lesson</text></g><!--entity P_APPUSER--><g class="entity" data-qualified-name="LAYER_STACK.MODEL.PERSISTENCE.P_APPUSER" id="ent0021" data-source-line="64"><path d="M208.31,536.08 L311.722,536.08 A3.75,3.75 0 0 1 314.222,538.58 L321.222,558.377 L377.692,558.377 A2.5,2.5 0 0 1 380.192,560.877 L380.192,605.471 A2.5,2.5 0 0 1 377.692,607.971 L208.31,607.971 A2.5,2.5 0 0 1 205.81,605.471 L205.81,538.58 A2.5,2.5 0 0 1 208.31,536.08" style="stroke:#181818;stroke-width:2;" fill="none"/><line x1="205.81" y1="558.377" x2="321.222" y2="558.377" style="stroke:#181818;stroke-width:2;"/><text x="215.81" y="552.075" fill="#000" font-size="14" textLength="90.412" font-weight="700">P_APPUSER</text><text x="252.075" y="578.372" fill="#000" font-size="14" textLength="71.853" font-weight="700">App User</text><text x="215.81" y="594.669" fill="#000" font-size="14" textLength="144.382">Account data access</text></g><!--entity P_STUDENT--><g class="entity" data-qualified-name="LAYER_STACK.MODEL.PERSISTENCE.P_STUDENT" id="ent0022" data-source-line="65"><path d="M418.14,536.08 L521.853,536.08 A3.75,3.75 0 0 1 524.353,538.58 L531.353,558.377 L585.861,558.377 A2.5,2.5 0 0 1 588.361,560.877 L588.361,605.471 A2.5,2.5 0 0 1 585.861,607.971 L418.14,607.971 A2.5,2.5 0 0 1 415.64,605.471 L415.64,538.58 A2.5,2.5 0 0 1 418.14,536.08" style="stroke:#181818;stroke-width:2;" fill="none"/><line x1="415.64" y1="558.377" x2="531.353" y2="558.377" style="stroke:#181818;stroke-width:2;"/><text x="425.64" y="552.075" fill="#000" font-size="14" textLength="90.713" font-weight="700">P_STUDENT</text><text x="465.541" y="578.372" fill="#000" font-size="14" textLength="62.918" font-weight="700">Student</text><text x="425.64" y="594.669" fill="#000" font-size="14" textLength="142.721">Student data access</text></g><!--entity P_TEACHER--><g class="entity" data-qualified-name="LAYER_STACK.MODEL.PERSISTENCE.P_TEACHER" id="ent0023" data-source-line="66"><path d="M626.35,536.08 L728.894,536.08 A3.75,3.75 0 0 1 731.394,538.58 L738.394,558.377 L795.643,558.377 A2.5,2.5 0 0 1 798.143,560.877 L798.143,605.471 A2.5,2.5 0 0 1 795.643,607.971 L626.35,607.971 A2.5,2.5 0 0 1 623.85,605.471 L623.85,538.58 A2.5,2.5 0 0 1 626.35,536.08" style="stroke:#181818;stroke-width:2;" fill="none"/><line x1="623.85" y1="558.377" x2="738.394" y2="558.377" style="stroke:#181818;stroke-width:2;"/><text x="633.85" y="552.075" fill="#000" font-size="14" textLength="89.544" font-weight="700">P_TEACHER</text><text x="674.418" y="578.372" fill="#000" font-size="14" textLength="63.157" font-weight="700">Teacher</text><text x="633.85" y="594.669" fill="#000" font-size="14" textLength="144.293">Teacher data access</text></g><!--entity P_GROUP--><g class="entity" data-qualified-name="LAYER_STACK.MODEL.PERSISTENCE.P_GROUP" id="ent0024" data-source-line="67"><path d="M835.23,536.08 L921.293,536.08 A3.75,3.75 0 0 1 923.793,538.58 L930.793,558.377 L990.769,558.377 A2.5,2.5 0 0 1 993.269,560.877 L993.269,605.471 A2.5,2.5 0 0 1 990.769,607.971 L835.23,607.971 A2.5,2.5 0 0 1 832.73,605.471 L832.73,538.58 A2.5,2.5 0 0 1 835.23,536.08" style="stroke:#181818;stroke-width:2;" fill="none"/><line x1="832.73" y1="558.377" x2="930.793" y2="558.377" style="stroke:#181818;stroke-width:2;"/><text x="842.73" y="552.075" fill="#000" font-size="14" textLength="73.063" font-weight="700">P_GROUP</text><text x="858.617" y="578.372" fill="#000" font-size="14" textLength="98.766" font-weight="700">Study Group</text><text x="842.73" y="594.669" fill="#000" font-size="14" textLength="130.539">Group data access</text></g><!--entity P_COURSE--><g class="entity" data-qualified-name="LAYER_STACK.MODEL.PERSISTENCE.P_COURSE" id="ent0025" data-source-line="68"><path d="M1031.26,536.08 L1125.491,536.08 A3.75,3.75 0 0 1 1127.991,538.58 L1134.991,558.377 L1192.746,558.377 A2.5,2.5 0 0 1 1195.246,560.877 L1195.246,605.471 A2.5,2.5 0 0 1 1192.746,607.971 L1031.26,607.971 A2.5,2.5 0 0 1 1028.76,605.471 L1028.76,538.58 A2.5,2.5 0 0 1 1031.26,536.08" style="stroke:#181818;stroke-width:2;" fill="none"/><line x1="1028.76" y1="558.377" x2="1134.991" y2="558.377" style="stroke:#181818;stroke-width:2;"/><text x="1038.76" y="552.075" fill="#000" font-size="14" textLength="81.231" font-weight="700">P_COURSE</text><text x="1079.707" y="578.372" fill="#000" font-size="14" textLength="54.592" font-weight="700">Course</text><text x="1038.76" y="594.669" fill="#000" font-size="14" textLength="136.486">Course data access</text></g><!--entity P_LESSON--><g class="entity" data-qualified-name="LAYER_STACK.MODEL.PERSISTENCE.P_LESSON" id="ent0026" data-source-line="69"><path d="M1232.48,536.08 L1325.009,536.08 A3.75,3.75 0 0 1 1327.509,538.58 L1334.509,558.377 L1393.529,558.377 A2.5,2.5 0 0 1 1396.029,560.877 L1396.029,605.471 A2.5,2.5 0 0 1 1393.529,607.971 L1232.48,607.971 A2.5,2.5 0 0 1 1229.98,605.471 L1229.98,538.58 A2.5,2.5 0 0 1 1232.48,536.08" style="stroke:#181818;stroke-width:2;" fill="none"/><line x1="1229.98" y1="558.377" x2="1334.509" y2="558.377" style="stroke:#181818;stroke-width:2;"/><text x="1239.98" y="552.075" fill="#000" font-size="14" textLength="79.529" font-weight="700">P_LESSON</text><text x="1280.671" y="578.372" fill="#000" font-size="14" textLength="54.667" font-weight="700">Lesson</text><text x="1239.98" y="594.669" fill="#000" font-size="14" textLength="136.049">Lesson data access</text></g><!--entity S_APPUSER--><g class="entity" data-qualified-name="LAYER_STACK.SERVICE.S_APPUSER" id="ent0034" data-source-line="85"><path d="M73,786.97 L176.234,786.97 A3.75,3.75 0 0 1 178.734,789.47 L185.734,809.267 L253.005,809.267 A2.5,2.5 0 0 1 255.505,811.767 L255.505,856.361 A2.5,2.5 0 0 1 253.005,858.861 L73,858.861 A2.5,2.5 0 0 1 70.5,856.361 L70.5,789.47 A2.5,2.5 0 0 1 73,786.97" style="stroke:#181818;stroke-width:2;" fill="none"/><line x1="70.5" y1="809.267" x2="185.734" y2="809.267" style="stroke:#181818;stroke-width:2;"/><text x="80.5" y="802.965" fill="#000" font-size="14" textLength="90.234" font-weight="700">S_APPUSER</text><text x="122.076" y="829.262" fill="#000" font-size="14" textLength="71.853" font-weight="700">App User</text><text x="80.5" y="845.559" fill="#000" font-size="14" textLength="155.005">Account management</text></g><!--entity S_STUDENT--><g class="entity" data-qualified-name="LAYER_STACK.SERVICE.S_STUDENT" id="ent0035" data-source-line="86"><path d="M293.46,786.97 L396.995,786.97 A3.75,3.75 0 0 1 399.495,789.47 L406.495,809.267 L452.533,809.267 A2.5,2.5 0 0 1 455.033,811.767 L455.033,856.361 A2.5,2.5 0 0 1 452.533,858.861 L293.46,858.861 A2.5,2.5 0 0 1 290.96,856.361 L290.96,789.47 A2.5,2.5 0 0 1 293.46,786.97" style="stroke:#181818;stroke-width:2;" fill="none"/><line x1="290.96" y1="809.267" x2="406.495" y2="809.267" style="stroke:#181818;stroke-width:2;"/><text x="300.96" y="802.965" fill="#000" font-size="14" textLength="90.535" font-weight="700">S_STUDENT</text><text x="336.538" y="829.262" fill="#000" font-size="14" textLength="62.918" font-weight="700">Student</text><text x="300.96" y="845.559" fill="#000" font-size="14" textLength="134.073">Student operations</text></g><!--entity S_TEACHER--><g class="entity" data-qualified-name="LAYER_STACK.SERVICE.S_TEACHER" id="ent0036" data-source-line="87"><path d="M492.68,786.97 L595.046,786.97 A3.75,3.75 0 0 1 597.546,789.47 L604.546,809.267 L653.326,809.267 A2.5,2.5 0 0 1 655.826,811.767 L655.826,856.361 A2.5,2.5 0 0 1 653.326,858.861 L492.68,858.861 A2.5,2.5 0 0 1 490.18,856.361 L490.18,789.47 A2.5,2.5 0 0 1 492.68,786.97" style="stroke:#181818;stroke-width:2;" fill="none"/><line x1="490.18" y1="809.267" x2="604.546" y2="809.267" style="stroke:#181818;stroke-width:2;"/><text x="500.18" y="802.965" fill="#000" font-size="14" textLength="89.366" font-weight="700">S_TEACHER</text><text x="536.424" y="829.262" fill="#000" font-size="14" textLength="63.157" font-weight="700">Teacher</text><text x="500.18" y="845.559" fill="#000" font-size="14" textLength="135.646">Teacher operations</text></g><!--entity S_GROUP--><g class="entity" data-qualified-name="LAYER_STACK.SERVICE.S_GROUP" id="ent0037" data-source-line="88"><path d="M692.92,786.97 L778.805,786.97 A3.75,3.75 0 0 1 781.305,789.47 L788.305,809.267 L859.082,809.267 A2.5,2.5 0 0 1 861.582,811.767 L861.582,856.361 A2.5,2.5 0 0 1 859.082,858.861 L692.92,858.861 A2.5,2.5 0 0 1 690.42,856.361 L690.42,789.47 A2.5,2.5 0 0 1 692.92,786.97" style="stroke:#181818;stroke-width:2;" fill="none"/><line x1="690.42" y1="809.267" x2="788.305" y2="809.267" style="stroke:#181818;stroke-width:2;"/><text x="700.42" y="802.965" fill="#000" font-size="14" textLength="72.885" font-weight="700">S_GROUP</text><text x="721.618" y="829.262" fill="#000" font-size="14" textLength="98.766" font-weight="700">Study Group</text><text x="700.42" y="845.559" fill="#000" font-size="14" textLength="141.162">Group management</text></g><!--entity S_COURSE--><g class="entity" data-qualified-name="LAYER_STACK.SERVICE.S_COURSE" id="ent0038" data-source-line="89"><path d="M898.95,786.97 L993.004,786.97 A3.75,3.75 0 0 1 995.504,789.47 L1002.504,809.267 L1071.059,809.267 A2.5,2.5 0 0 1 1073.559,811.767 L1073.559,856.361 A2.5,2.5 0 0 1 1071.059,858.861 L898.95,858.861 A2.5,2.5 0 0 1 896.45,856.361 L896.45,789.47 A2.5,2.5 0 0 1 898.95,786.97" style="stroke:#181818;stroke-width:2;" fill="none"/><line x1="896.45" y1="809.267" x2="1002.504" y2="809.267" style="stroke:#181818;stroke-width:2;"/><text x="906.45" y="802.965" fill="#000" font-size="14" textLength="81.054" font-weight="700">S_COURSE</text><text x="952.709" y="829.262" fill="#000" font-size="14" textLength="54.592" font-weight="700">Course</text><text x="906.45" y="845.559" fill="#000" font-size="14" textLength="147.109">Course management</text></g><!--entity S_LESSON--><g class="entity" data-qualified-name="LAYER_STACK.SERVICE.S_LESSON" id="ent0039" data-source-line="90"><path d="M1111.31,786.97 L1203.662,786.97 A3.75,3.75 0 0 1 1206.162,789.47 L1213.162,809.267 L1304.693,809.267 A2.5,2.5 0 0 1 1307.193,811.767 L1307.193,856.361 A2.5,2.5 0 0 1 1304.693,858.861 L1111.31,858.861 A2.5,2.5 0 0 1 1108.81,856.361 L1108.81,789.47 A2.5,2.5 0 0 1 1111.31,786.97" style="stroke:#181818;stroke-width:2;" fill="none"/><line x1="1108.81" y1="809.267" x2="1213.162" y2="809.267" style="stroke:#181818;stroke-width:2;"/><text x="1118.81" y="802.965" fill="#000" font-size="14" textLength="79.352" font-weight="700">S_LESSON</text><text x="1175.668" y="829.262" fill="#000" font-size="14" textLength="54.667" font-weight="700">Lesson</text><text x="1118.81" y="845.559" fill="#000" font-size="14" textLength="168.383">Timetable management</text></g><!--entity S_ROLE_CHANGE--><g class="entity" data-qualified-name="LAYER_STACK.SERVICE.S_ROLE_CHANGE" id="ent0040" data-source-line="91"><path d="M1344.95,786.97 L1488.797,786.97 A3.75,3.75 0 0 1 1491.297,789.47 L1498.297,809.267 L1539.057,809.267 A2.5,2.5 0 0 1 1541.557,811.767 L1541.557,856.361 A2.5,2.5 0 0 1 1539.057,858.861 L1344.95,858.861 A2.5,2.5 0 0 1 1342.45,856.361 L1342.45,789.47 A2.5,2.5 0 0 1 1344.95,786.97" style="stroke:#181818;stroke-width:2;" fill="none"/><line x1="1342.45" y1="809.267" x2="1498.297" y2="809.267" style="stroke:#181818;stroke-width:2;"/><text x="1352.45" y="802.965" fill="#000" font-size="14" textLength="130.847" font-weight="700">S_ROLE_CHANGE</text><text x="1387.635" y="829.262" fill="#000" font-size="14" textLength="98.738" font-weight="700">Role Change</text><text x="1352.45" y="845.559" fill="#000" font-size="14" textLength="169.107">Role transition workflow</text></g><!--entity W_ACCOUNT--><g class="entity" data-qualified-name="LAYER_STACK.WEB.W_ACCOUNT" id="ent0048" data-source-line="105"><path d="M145.69,997.86 L257.052,997.86 A3.75,3.75 0 0 1 259.552,1000.36 L266.552,1020.157 L282.3,1020.157 A2.5,2.5 0 0 1 284.8,1022.657 L284.8,1067.251 A2.5,2.5 0 0 1 282.3,1069.751 L145.69,1069.751 A2.5,2.5 0 0 1 143.19,1067.251 L143.19,1000.36 A2.5,2.5 0 0 1 145.69,997.86" style="stroke:#181818;stroke-width:2;" fill="none"/><line x1="143.19" y1="1020.157" x2="266.552" y2="1020.157" style="stroke:#181818;stroke-width:2;"/><text x="153.19" y="1013.855" fill="#000" font-size="14" textLength="98.362" font-weight="700">W_ACCOUNT</text><text x="177.157" y="1040.152" fill="#000" font-size="14" textLength="63.677" font-weight="700">Account</text><text x="153.19" y="1056.449" fill="#000" font-size="14" textLength="111.61">Account actions</text></g><!--entity W_ADMIN--><g class="entity" data-qualified-name="LAYER_STACK.WEB.W_ADMIN" id="ent0049" data-source-line="106"><path d="M321.94,997.86 L410.696,997.86 A3.75,3.75 0 0 1 413.196,1000.36 L420.196,1020.157 L528.051,1020.157 A2.5,2.5 0 0 1 530.551,1022.657 L530.551,1067.251 A2.5,2.5 0 0 1 528.051,1069.751 L321.94,1069.751 A2.5,2.5 0 0 1 319.44,1067.251 L319.44,1000.36 A2.5,2.5 0 0 1 321.94,997.86" style="stroke:#181818;stroke-width:2;" fill="none"/><line x1="319.44" y1="1020.157" x2="420.196" y2="1020.157" style="stroke:#181818;stroke-width:2;"/><text x="329.44" y="1013.855" fill="#000" font-size="14" textLength="75.756" font-weight="700">W_ADMIN</text><text x="394.891" y="1040.152" fill="#000" font-size="14" textLength="50.21" font-weight="700">Admin</text><text x="329.44" y="1056.449" fill="#000" font-size="14" textLength="181.111">Administrative operations</text></g><!--entity W_COURSE--><g class="entity" data-qualified-name="LAYER_STACK.WEB.W_COURSE" id="ent0050" data-source-line="107"><path d="M568.29,997.86 L667.703,997.86 A3.75,3.75 0 0 1 670.203,1000.36 L677.203,1020.157 L691.703,1020.157 A2.5,2.5 0 0 1 694.203,1022.657 L694.203,1067.251 A2.5,2.5 0 0 1 691.703,1069.751 L568.29,1069.751 A2.5,2.5 0 0 1 565.79,1067.251 L565.79,1000.36 A2.5,2.5 0 0 1 568.29,997.86" style="stroke:#181818;stroke-width:2;" fill="none"/><line x1="565.79" y1="1020.157" x2="677.203" y2="1020.157" style="stroke:#181818;stroke-width:2;"/><text x="575.79" y="1013.855" fill="#000" font-size="14" textLength="86.413" font-weight="700">W_COURSE</text><text x="596.288" y="1040.152" fill="#000" font-size="14" textLength="54.592" font-weight="700">Course</text><text x="575.79" y="1056.449" fill="#000" font-size="14" textLength="95.587">Course pages</text></g><!--entity W_GROUP--><g class="entity" data-qualified-name="LAYER_STACK.WEB.W_GROUP" id="ent0051" data-source-line="108"><path d="M731.92,997.86 L823.164,997.86 A3.75,3.75 0 0 1 825.664,1000.36 L832.664,1020.157 L890.07,1020.157 A2.5,2.5 0 0 1 892.57,1022.657 L892.57,1067.251 A2.5,2.5 0 0 1 890.07,1069.751 L731.92,1069.751 A2.5,2.5 0 0 1 729.42,1067.251 L729.42,1000.36 A2.5,2.5 0 0 1 731.92,997.86" style="stroke:#181818;stroke-width:2;" fill="none"/><line x1="729.42" y1="1020.157" x2="832.664" y2="1020.157" style="stroke:#181818;stroke-width:2;"/><text x="739.42" y="1013.855" fill="#000" font-size="14" textLength="78.244" font-weight="700">W_GROUP</text><text x="781.994" y="1040.152" fill="#000" font-size="14" textLength="48.002" font-weight="700">Group</text><text x="739.42" y="1056.449" fill="#000" font-size="14" textLength="133.15">Study-group pages</text></g><!--entity W_PROFILE--><g class="entity" data-qualified-name="LAYER_STACK.WEB.W_PROFILE" id="ent0052" data-source-line="109"><path d="M930.18,997.86 L1031.822,997.86 A3.75,3.75 0 0 1 1034.322,1000.36 L1041.322,1020.157 L1055.822,1020.157 A2.5,2.5 0 0 1 1058.322,1022.657 L1058.322,1067.251 A2.5,2.5 0 0 1 1055.822,1069.751 L930.18,1069.751 A2.5,2.5 0 0 1 927.68,1067.251 L927.68,1000.36 A2.5,2.5 0 0 1 930.18,997.86" style="stroke:#181818;stroke-width:2;" fill="none"/><line x1="927.68" y1="1020.157" x2="1041.322" y2="1020.157" style="stroke:#181818;stroke-width:2;"/><text x="937.68" y="1013.855" fill="#000" font-size="14" textLength="88.642" font-weight="700">W_PROFILE</text><text x="957.094" y="1040.152" fill="#000" font-size="14" textLength="51.967" font-weight="700">Profile</text><text x="937.68" y="1056.449" fill="#000" font-size="14" textLength="90.795">Profile pages</text></g><!--entity W_STUDENT--><g class="entity" data-qualified-name="LAYER_STACK.WEB.W_STUDENT" id="ent0053" data-source-line="110"><path d="M1095.64,997.86 L1204.535,997.86 A3.75,3.75 0 0 1 1207.035,1000.36 L1214.035,1020.157 L1270.368,1020.157 A2.5,2.5 0 0 1 1272.868,1022.657 L1272.868,1067.251 A2.5,2.5 0 0 1 1270.368,1069.751 L1095.64,1069.751 A2.5,2.5 0 0 1 1093.14,1067.251 L1093.14,1000.36 A2.5,2.5 0 0 1 1095.64,997.86" style="stroke:#181818;stroke-width:2;" fill="none"/><line x1="1093.14" y1="1020.157" x2="1214.035" y2="1020.157" style="stroke:#181818;stroke-width:2;"/><text x="1103.14" y="1013.855" fill="#000" font-size="14" textLength="95.895" font-weight="700">W_STUDENT</text><text x="1146.545" y="1040.152" fill="#000" font-size="14" textLength="62.918" font-weight="700">Student</text><text x="1103.14" y="1056.449" fill="#000" font-size="14" textLength="149.728">Student-facing pages</text></g><!--entity W_TEACHER--><g class="entity" data-qualified-name="LAYER_STACK.WEB.W_TEACHER" id="ent0054" data-source-line="111"><path d="M1310.85,997.86 L1418.576,997.86 A3.75,3.75 0 0 1 1421.076,1000.36 L1428.076,1020.157 L1487.15,1020.157 A2.5,2.5 0 0 1 1489.65,1022.657 L1489.65,1067.251 A2.5,2.5 0 0 1 1487.15,1069.751 L1310.85,1069.751 A2.5,2.5 0 0 1 1308.35,1067.251 L1308.35,1000.36 A2.5,2.5 0 0 1 1310.85,997.86" style="stroke:#181818;stroke-width:2;" fill="none"/><line x1="1308.35" y1="1020.157" x2="1428.076" y2="1020.157" style="stroke:#181818;stroke-width:2;"/><text x="1318.35" y="1013.855" fill="#000" font-size="14" textLength="94.726" font-weight="700">W_TEACHER</text><text x="1362.421" y="1040.152" fill="#000" font-size="14" textLength="63.157" font-weight="700">Teacher</text><text x="1318.35" y="1056.449" fill="#000" font-size="14" textLength="151.3">Teacher-facing pages</text></g><!--entity HEADER_INFO--><g class="entity" data-qualified-name="HEADER_INFO" id="ent0001" data-source-line="29"><rect x="249.92" y="7" width="190.167" height="68.891" fill="none" style="stroke:#808080;stroke-width:1;" rx="3" ry="3"/><text x="277.03" y="29.995" fill="#000" font-size="14" textLength="135.946" font-weight="700">Project Structure</text><text x="296.393" y="46.292" fill="#000" font-size="14" textLength="97.221">Main package</text><text x="259.92" y="62.589" fill="#000" font-size="14" textLength="170.167">ua.foxminded.university</text></g><!--entity RUNNER--><g class="entity" data-qualified-name="RUNNER" id="ent0002" data-source-line="31"><rect x="475.13" y="7" width="255.744" height="68.891" fill="none" style="stroke:#808080;stroke-width:1;" rx="3" ry="3"/><text x="485.13" y="29.995" fill="#000" font-size="14" textLength="235.744" font-weight="700">UniversityWebAppApplication</text><text x="521.237" y="46.292" fill="#000" font-size="14" textLength="163.529">Spring Boot application</text><text x="564.417" y="62.589" fill="#000" font-size="14" textLength="77.171">entry point</text></g><!--entity SECURITY--><g class="entity" data-qualified-name="SECURITY" id="ent0003" data-source-line="33"><rect x="765.71" y="7" width="262.573" height="68.891" fill="none" style="stroke:#ADD8E6;stroke-width:1;" rx="3" ry="3"/><text x="864.314" y="29.995" fill="#000" font-size="14" textLength="65.365" font-weight="700">Security</text><text x="781.606" y="46.292" fill="#000" font-size="14" textLength="230.781">Authentication and authorization</text><text x="775.71" y="62.589" fill="#000" font-size="14" textLength="242.573">Configuration and access handlers</text></g><!--link HEADER_INFO to RUNNER--><!--link RUNNER to SECURITY--><!--link D_APPUSER to D_STUDENT--><!--link D_STUDENT to D_TEACHER--><!--link D_TEACHER to D_GROUP--><!--link D_GROUP to D_COURSE--><!--link D_COURSE to D_LESSON--><!--link P_APPUSER to P_STUDENT--><!--link P_STUDENT to P_TEACHER--><!--link P_TEACHER to P_GROUP--><!--link P_GROUP to P_COURSE--><!--link P_COURSE to P_LESSON--><!--link DOMAIN to PERSISTENCE--><!--link S_APPUSER to S_STUDENT--><!--link S_STUDENT to S_TEACHER--><!--link S_TEACHER to S_GROUP--><!--link S_GROUP to S_COURSE--><!--link S_COURSE to S_LESSON--><!--link S_LESSON to S_ROLE_CHANGE--><!--link W_ACCOUNT to W_ADMIN--><!--link W_ADMIN to W_COURSE--><!--link W_COURSE to W_GROUP--><!--link W_GROUP to W_PROFILE--><!--link W_PROFILE to W_STUDENT--><!--link W_STUDENT to W_TEACHER--><!--link MODEL to SERVICE--><!--link SERVICE to WEB--><!--link P_APPUSER to S_APPUSER--><!--link S_APPUSER to W_ACCOUNT--><!--link HEADER_INFO to D_APPUSER--><!--link RUNNER to D_STUDENT--><!--link SECURITY to D_TEACHER--><?plantuml-src hPZVS-8s4CVV-IiqwJFNQH_wSCranXY7qFB3OyCncQQJ4RO0DKPoPJavhdF_UzUIRMmiGKZBtDm8QVNTrQu-aeZaAP8ShRcKV8zYAaWaAMUzNlP2MOe5tgCrZbwsWkSiTdd21P82imo629CDgso7O_v6sHPjS9AHnaWAy_6MXFAG4BJXIKn4OpGc6vmdSa6-IYUXMxO7MHJ1Vs3L5K7_z11y1cT2KkDSW9V5ZaOlZ6GP-bdrtdCcjVqW0O7UzwQ3Ok6ORPFhNEYnaS07ez-VL6-WLGGZ0lroEP9ogRUt2JxmNDxTVI2Yqx6Zm-O8k9LyI-GE0jC-ZbcukLtV-OB_1Hqeb2AFP2x8xO_hkoSsnPHLKJwn77_QyAzxoc8IVyePVIKYe_9mWt267Zndw0NFuzdzl6VGNzRMAx9sqXJ-9JJ2nGRKdi9K53jgmBb4-3Zun21wSK0ffqmgHy5oDlC2au-GHBa03rhGoM6nJ9Ow2BCOOUZYWduhbLtEDdIRYuP151Mrt44xWMYLlz1pby5uyOX-I2WZdoTqkvE392U_5h1yRkPOXTJ80-h_iQDnJDYVefZKhq9N6qKrEnQLiw9U5GStICKnSHv1Drmuxk-ejM6KNcqCUTZpc2Gw2KE-BogeUjGAOomnIejAP9AmY2ZfwNpeJShrZGGXx94a2N_hhB1oTkemLbwqnzzyfx_738R0cVPUL45IejCvd4-TyQnqTiy5oQHoUTPPyJdPlirFCnROMCkC21rCqIgA2YJ99rQiN_14htduxFZ-CYpBOLCBPGxLaUKMrLzGAlY6rZBXOZdqPekpCWk2erqLLFdbH6RXEUx3Ew8vZE1SIClbrL2XuhH8IwbHC5_wPuLSdekCT4GYrLsgkFDb47fdPIO0Iyqlh2dE4wXwedfBbOaNXlDPhoDJfx-3W3sZzOXXZYrzzOXXZZbFPR_1tfAHQi0mernzq_fxxzWomjI0itKo3Wjo1Kavb0eECP8fdl_EIN4wwjCRZZ4DcUy5uJXSU3FNgx0kBcCMyFX_v0mTGNCqO_fuqQUe3kJZb7MbFanQL-hTjA46Rgff4BkEDzqso5m9d6uRT6p8-LRaxAdrhSZPS-XRaREbohSWPys9RqFEVpTovJrK2y2BblMRuFGQ4verW3t_IYis1tb6rVCluLiQwJV4yV62thXusS1DMhqaWY_ZciWX5Yzpm71BpY9fmV4oYleIBjxOshcHn8iKSZYEyF5W2OqxvIA07HNJtda7UvqrTVVJ1Umw2eOTPYDkGVT4udLYK37ikgPA0AyEvEwAOcifrQ4gJbiRfPGBvXFlsNrmPYElpN5ePTXScT3Ahxa6ePLTKwv32xV6h8OsPetPgpeDritaj14tqFf6rgrRTFh5XTkIP50wZIWyf8bGQLzvWnBDAObfllTpaIR_7KwDOvjDtBYhLy-E2vavWvGJxwlNjMh2ww2WwPMSSWLIm-buTWqFAOnLao-WqA1HuTbNRywMmdaSVVtWrHBbbzPqFvZVZoVULITKVuEZeh1DdO-SKIQTYf2MK5slpjOqfR_iCzWQihso8MBAxCe2dpcDTQ_1tfIkbVNWM7KEZXPy-hVaoRLQtdpAeBe5Jqo0FYrWUAQK8gqRBBIP7Nc2Y8o_nhNTyGVWwM_nQhpAI_qNW8v5cOb_0G00?></g></svg>