<svg xmlns="http://www.w3.org/2000/svg" xmlns:xlink="http://www.w3.org/1999/xlink" version="1.1" data-diagram-type="CLASS" style="width:972px;height:588px;background:#FFFFFF;" width="972px" height="588px" viewBox="0 0 972 588" zoomAndPan="magnify" preserveAspectRatio="none" contentStyleType="text/css"><?plantuml 1.2026.7beta8?><defs/><g font-family="sans-serif" lengthAdjust="spacing"><g class="title" data-source-line="1"><text x="412.313" y="22.995" fill="#000" font-size="14" textLength="141.258" font-weight="700">Database Schema</text></g><!--class app_user--><g class="entity" data-qualified-name="app_user" id="ent0001" data-source-line="21"><rect x="7" y="44.297" width="188.675" height="194.672" fill="#F2F2F2" style="stroke:#7A7A7A;stroke-width:1.5;" rx="2.5" ry="2.5"/><rect x="7" y="44.297" width="188.675" height="32" fill="#FCE5CD" style="stroke:#FCE5CD;stroke-width:1.5;" rx="2.5" ry="2.5"/><rect x="7" y="73.797" width="188.675" height="2.5" fill="#FCE5CD" style="stroke:#FCE5CD;stroke-width:1.5;"/><rect x="7" y="44.297" width="188.675" height="194.672" fill="none" style="stroke:#7A7A7A;stroke-width:1.5;" rx="2.5" ry="2.5"/><ellipse cx="65.143" cy="60.297" rx="11" ry="11" fill="#ADD1B2" style="stroke:#181818;stroke-width:1;"/><path d="M68.112,65.938 Q67.534,66.234 66.893,66.375 Q66.252,66.531 65.549,66.531 Q63.049,66.531 61.721,64.891 Q60.409,63.234 60.409,60.109 Q60.409,56.984 61.721,55.328 Q63.049,53.672 65.549,53.672 Q66.252,53.672 66.893,53.828 Q67.549,53.984 68.112,54.281 L68.112,57 Q67.487,56.422 66.893,56.156 Q66.299,55.875 65.674,55.875 Q64.331,55.875 63.643,56.953 Q62.956,58.016 62.956,60.109 Q62.956,62.203 63.643,63.281 Q64.331,64.344 65.674,64.344 Q66.299,64.344 66.893,64.078 Q67.487,63.797 68.112,63.219 L68.112,65.938 Z " fill="#000"/><text x="85.643" y="65.144" fill="#000" font-size="14" textLength="63.889">app_user</text><line x1="8" y1="76.297" x2="194.675" y2="76.297" style="stroke:#7A7A7A;stroke-width:1.5;"/><text x="13" y="93.292" fill="#000" font-size="14" textLength="137.013">+id : bigserial «PK»</text><line x1="8" y1="100.594" x2="194.675" y2="100.594" style="stroke:#7A7A7A;stroke-width:1;"/><text x="13" y="117.589" fill="#000" font-size="14" textLength="143.397">email : varchar(255)</text><text x="13" y="133.886" fill="#000" font-size="14" textLength="171.5">password : varchar(100)</text><text x="13" y="150.183" fill="#000" font-size="14" textLength="122.705">role : varchar(16)</text><text x="13" y="166.479" fill="#000" font-size="14" textLength="169.941">first_name : varchar(64)</text><text x="13" y="182.776" fill="#000" font-size="14" textLength="167.836">last_name : varchar(64)</text><text x="13" y="199.073" fill="#000" font-size="14" textLength="125.932">enabled : boolean</text><text x="13" y="215.37" fill="#000" font-size="14" textLength="176.675">created_at : timestamptz</text><text x="13" y="231.667" fill="#000" font-size="14" textLength="176.032">deleted_at : timestamptz</text></g><!--class groups--><g class="entity" data-qualified-name="groups" id="ent0002" data-source-line="34"><rect x="7.32" y="274.187" width="188.032" height="96.891" fill="#F2F2F2" style="stroke:#7A7A7A;stroke-width:1.5;" rx="2.5" ry="2.5"/><rect x="7.32" y="274.187" width="188.032" height="32" fill="#FCE5CD" style="stroke:#FCE5CD;stroke-width:1.5;" rx="2.5" ry="2.5"/><rect x="7.32" y="303.687" width="188.032" height="2.5" fill="#FCE5CD" style="stroke:#FCE5CD;stroke-width:1.5;"/><rect x="7.32" y="274.187" width="188.032" height="96.891" fill="none" style="stroke:#7A7A7A;stroke-width:1.5;" rx="2.5" ry="2.5"/><ellipse cx="72.955" cy="290.187" rx="11" ry="11" fill="#ADD1B2" style="stroke:#181818;stroke-width:1;"/><path d="M75.924,295.828 Q75.346,296.124 74.705,296.265 Q74.065,296.421 73.362,296.421 Q70.862,296.421 69.533,294.781 Q68.221,293.124 68.221,289.999 Q68.221,286.874 69.533,285.218 Q70.862,283.562 73.362,283.562 Q74.065,283.562 74.705,283.718 Q75.362,283.874 75.924,284.171 L75.924,286.89 Q75.299,286.312 74.705,286.046 Q74.112,285.765 73.487,285.765 Q72.143,285.765 71.455,286.843 Q70.768,287.906 70.768,289.999 Q70.768,292.093 71.455,293.171 Q72.143,294.234 73.487,294.234 Q74.112,294.234 74.705,293.968 Q75.299,293.687 75.924,293.109 L75.924,295.828 Z " fill="#000"/><text x="93.455" y="295.034" fill="#000" font-size="14" textLength="48.262">groups</text><line x1="8.32" y1="306.187" x2="194.352" y2="306.187" style="stroke:#7A7A7A;stroke-width:1.5;"/><text x="13.32" y="323.182" fill="#000" font-size="14" textLength="137.013">+id : bigserial «PK»</text><line x1="8.32" y1="330.484" x2="194.352" y2="330.484" style="stroke:#7A7A7A;stroke-width:1;"/><text x="13.32" y="347.479" fill="#000" font-size="14" textLength="144.491">name : varchar(255)</text><text x="13.32" y="363.776" fill="#000" font-size="14" textLength="176.032">deleted_at : timestamptz</text></g><!--class student--><g class="entity" data-qualified-name="student" id="ent0003" data-source-line="41"><rect x="268.55" y="85.037" width="188.032" height="113.188" fill="#F2F2F2" style="stroke:#7A7A7A;stroke-width:1.5;" rx="2.5" ry="2.5"/><rect x="268.55" y="85.037" width="188.032" height="32" fill="#FCE5CD" style="stroke:#FCE5CD;stroke-width:1.5;" rx="2.5" ry="2.5"/><rect x="268.55" y="114.537" width="188.032" height="2.5" fill="#FCE5CD" style="stroke:#FCE5CD;stroke-width:1.5;"/><rect x="268.55" y="85.037" width="188.032" height="113.188" fill="none" style="stroke:#7A7A7A;stroke-width:1.5;" rx="2.5" ry="2.5"/><ellipse cx="331.557" cy="101.037" rx="11" ry="11" fill="#ADD1B2" style="stroke:#181818;stroke-width:1;"/><path d="M334.526,106.678 Q333.947,106.974 333.307,107.115 Q332.666,107.271 331.963,107.271 Q329.463,107.271 328.135,105.631 Q326.822,103.974 326.822,100.849 Q326.822,97.724 328.135,96.068 Q329.463,94.412 331.963,94.412 Q332.666,94.412 333.307,94.568 Q333.963,94.724 334.526,95.021 L334.526,97.74 Q333.901,97.162 333.307,96.896 Q332.713,96.615 332.088,96.615 Q330.744,96.615 330.057,97.693 Q329.369,98.756 329.369,100.849 Q329.369,102.943 330.057,104.021 Q330.744,105.084 332.088,105.084 Q332.713,105.084 333.307,104.818 Q333.901,104.537 334.526,103.959 L334.526,106.678 Z " fill="#000"/><text x="352.057" y="105.884" fill="#000" font-size="14" textLength="53.519">student</text><line x1="269.55" y1="117.037" x2="455.582" y2="117.037" style="stroke:#7A7A7A;stroke-width:1.5;"/><text x="274.55" y="134.032" fill="#000" font-size="14">+</text><text x="286.28" y="134.032" fill="#000" font-size="14" textLength="12.776" text-decoration="underline">id</text><text x="303.507" y="134.032" fill="#000" font-size="14" textLength="114.42">: bigint «PK, FK»</text><line x1="269.55" y1="141.334" x2="455.582" y2="141.334" style="stroke:#7A7A7A;stroke-width:1;"/><text x="274.55" y="158.329" fill="#000" font-size="14" textLength="60.744" text-decoration="underline">group_id</text><text x="339.744" y="158.329" fill="#000" font-size="14" textLength="87.896">: bigint «FK»</text><text x="274.55" y="174.626" fill="#000" font-size="14" textLength="146.303">enrollment_year : int</text><text x="274.55" y="190.923" fill="#000" font-size="14" textLength="176.032">deleted_at : timestamptz</text></g><!--class teacher--><g class="entity" data-qualified-name="teacher" id="ent0004" data-source-line="49"><rect x="255.67" y="341.037" width="213.776" height="113.188" fill="#F2F2F2" style="stroke:#7A7A7A;stroke-width:1.5;" rx="2.5" ry="2.5"/><rect x="255.67" y="341.037" width="213.776" height="32" fill="#FCE5CD" style="stroke:#FCE5CD;stroke-width:1.5;" rx="2.5" ry="2.5"/><rect x="255.67" y="370.537" width="213.776" height="2.5" fill="#FCE5CD" style="stroke:#FCE5CD;stroke-width:1.5;"/><rect x="255.67" y="341.037" width="213.776" height="113.188" fill="none" style="stroke:#7A7A7A;stroke-width:1.5;" rx="2.5" ry="2.5"/><ellipse cx="331.498" cy="357.037" rx="11" ry="11" fill="#ADD1B2" style="stroke:#181818;stroke-width:1;"/><path d="M334.466,362.677 Q333.888,362.974 333.248,363.115 Q332.607,363.271 331.904,363.271 Q329.404,363.271 328.076,361.631 Q326.763,359.974 326.763,356.849 Q326.763,353.724 328.076,352.068 Q329.404,350.412 331.904,350.412 Q332.607,350.412 333.248,350.568 Q333.904,350.724 334.466,351.021 L334.466,353.74 Q333.841,353.162 333.248,352.896 Q332.654,352.615 332.029,352.615 Q330.685,352.615 329.998,353.693 Q329.31,354.756 329.31,356.849 Q329.31,358.943 329.998,360.021 Q330.685,361.084 332.029,361.084 Q332.654,361.084 333.248,360.818 Q333.841,360.537 334.466,359.959 L334.466,362.677 Z " fill="#000"/><text x="351.998" y="361.884" fill="#000" font-size="14" textLength="53.621">teacher</text><line x1="256.67" y1="373.037" x2="468.446" y2="373.037" style="stroke:#7A7A7A;stroke-width:1.5;"/><text x="261.67" y="390.032" fill="#000" font-size="14">+</text><text x="273.4" y="390.032" fill="#000" font-size="14" textLength="12.776" text-decoration="underline">id</text><text x="290.627" y="390.032" fill="#000" font-size="14" textLength="114.42">: bigint «PK, FK»</text><line x1="256.67" y1="397.334" x2="468.446" y2="397.334" style="stroke:#7A7A7A;stroke-width:1;"/><text x="261.67" y="414.329" fill="#000" font-size="14" textLength="201.776">academic_rank : varchar(64)</text><text x="261.67" y="430.626" fill="#000" font-size="14" textLength="134.504">office : varchar(64)</text><text x="261.67" y="446.923" fill="#000" font-size="14" textLength="176.032">deleted_at : timestamptz</text></g><!--class courses--><g class="entity" data-qualified-name="courses" id="ent0005" data-source-line="57"><rect x="529.45" y="339.897" width="177.744" height="129.484" fill="#F2F2F2" style="stroke:#7A7A7A;stroke-width:1.5;" rx="2.5" ry="2.5"/><rect x="529.45" y="339.897" width="177.744" height="32" fill="#FCE5CD" style="stroke:#FCE5CD;stroke-width:1.5;" rx="2.5" ry="2.5"/><rect x="529.45" y="369.397" width="177.744" height="2.5" fill="#FCE5CD" style="stroke:#FCE5CD;stroke-width:1.5;"/><rect x="529.45" y="339.897" width="177.744" height="129.484" fill="none" style="stroke:#7A7A7A;stroke-width:1.5;" rx="2.5" ry="2.5"/><ellipse cx="587.026" cy="355.897" rx="11" ry="11" fill="#ADD1B2" style="stroke:#181818;stroke-width:1;"/><path d="M589.994,361.537 Q589.416,361.834 588.776,361.975 Q588.135,362.131 587.432,362.131 Q584.932,362.131 583.604,360.491 Q582.291,358.834 582.291,355.709 Q582.291,352.584 583.604,350.928 Q584.932,349.272 587.432,349.272 Q588.135,349.272 588.776,349.428 Q589.432,349.584 589.994,349.881 L589.994,352.6 Q589.369,352.022 588.776,351.756 Q588.182,351.475 587.557,351.475 Q586.213,351.475 585.526,352.553 Q584.838,353.616 584.838,355.709 Q584.838,357.803 585.526,358.881 Q586.213,359.944 587.557,359.944 Q588.182,359.944 588.776,359.678 Q589.369,359.397 589.994,358.819 L589.994,361.537 Z " fill="#000"/><text x="607.526" y="360.744" fill="#000" font-size="14" textLength="54.093">courses</text><line x1="530.45" y1="371.897" x2="706.194" y2="371.897" style="stroke:#7A7A7A;stroke-width:1.5;"/><text x="535.45" y="388.892" fill="#000" font-size="14" textLength="137.013">+id : bigserial «PK»</text><line x1="530.45" y1="396.194" x2="706.194" y2="396.194" style="stroke:#7A7A7A;stroke-width:1;"/><text x="535.45" y="413.189" fill="#000" font-size="14" textLength="129.644">code : varchar(32)</text><text x="535.45" y="429.486" fill="#000" font-size="14" textLength="144.491">name : varchar(255)</text><text x="535.45" y="445.783" fill="#000" font-size="14" textLength="119.335">description : text</text><text x="535.45" y="462.079" fill="#000" font-size="14" textLength="73.397" text-decoration="underline">teacher_id</text><text x="613.298" y="462.079" fill="#000" font-size="14" textLength="87.896">: bigint «FK»</text></g><!--class group_courses--><g class="entity" data-qualified-name="group_courses" id="ent0006" data-source-line="66"><rect x="257.98" y="233.337" width="209.176" height="72.594" fill="#F2F2F2" style="stroke:#7A7A7A;stroke-width:1.5;" rx="2.5" ry="2.5"/><rect x="257.98" y="233.337" width="209.176" height="32" fill="#FCE5CD" style="stroke:#FCE5CD;stroke-width:1.5;" rx="2.5" ry="2.5"/><rect x="257.98" y="262.837" width="209.176" height="2.5" fill="#FCE5CD" style="stroke:#FCE5CD;stroke-width:1.5;"/><rect x="257.98" y="233.337" width="209.176" height="72.594" fill="none" style="stroke:#7A7A7A;stroke-width:1.5;" rx="2.5" ry="2.5"/><ellipse cx="307.288" cy="249.337" rx="11" ry="11" fill="#ADD1B2" style="stroke:#181818;stroke-width:1;"/><path d="M310.256,254.978 Q309.678,255.274 309.038,255.415 Q308.397,255.571 307.694,255.571 Q305.194,255.571 303.866,253.931 Q302.553,252.274 302.553,249.149 Q302.553,246.024 303.866,244.368 Q305.194,242.712 307.694,242.712 Q308.397,242.712 309.038,242.868 Q309.694,243.024 310.256,243.321 L310.256,246.04 Q309.631,245.462 309.038,245.196 Q308.444,244.915 307.819,244.915 Q306.475,244.915 305.788,245.993 Q305.1,247.056 305.1,249.149 Q305.1,251.243 305.788,252.321 Q306.475,253.384 307.819,253.384 Q308.444,253.384 309.038,253.118 Q309.631,252.837 310.256,252.259 L310.256,254.978 Z " fill="#000"/><text x="327.788" y="254.184" fill="#000" font-size="14" textLength="102.061">group_courses</text><line x1="258.98" y1="265.337" x2="466.156" y2="265.337" style="stroke:#7A7A7A;stroke-width:1.5;"/><text x="263.98" y="282.332" fill="#000" font-size="14">+</text><text x="275.71" y="282.332" fill="#000" font-size="14" textLength="60.744" text-decoration="underline">group_id</text><text x="340.905" y="282.332" fill="#000" font-size="14" textLength="114.42">: bigint «PK, FK»</text><text x="263.98" y="298.629" fill="#000" font-size="14">+</text><text x="275.71" y="298.629" fill="#000" font-size="14" textLength="66.575" text-decoration="underline">course_id</text><text x="346.736" y="298.629" fill="#000" font-size="14" textLength="114.42">: bigint «PK, FK»</text></g><!--class lessons--><g class="entity" data-qualified-name="lessons" id="ent0007" data-source-line="71"><rect x="767.2" y="248.447" width="190.685" height="178.375" fill="#F2F2F2" style="stroke:#7A7A7A;stroke-width:1.5;" rx="2.5" ry="2.5"/><rect x="767.2" y="248.447" width="190.685" height="32" fill="#FCE5CD" style="stroke:#FCE5CD;stroke-width:1.5;" rx="2.5" ry="2.5"/><rect x="767.2" y="277.947" width="190.685" height="2.5" fill="#FCE5CD" style="stroke:#FCE5CD;stroke-width:1.5;"/><rect x="767.2" y="248.447" width="190.685" height="178.375" fill="none" style="stroke:#7A7A7A;stroke-width:1.5;" rx="2.5" ry="2.5"/><ellipse cx="832.381" cy="264.447" rx="11" ry="11" fill="#ADD1B2" style="stroke:#181818;stroke-width:1;"/><path d="M835.349,270.088 Q834.771,270.384 834.131,270.525 Q833.49,270.681 832.787,270.681 Q830.287,270.681 828.959,269.041 Q827.646,267.384 827.646,264.259 Q827.646,261.134 828.959,259.478 Q830.287,257.822 832.787,257.822 Q833.49,257.822 834.131,257.978 Q834.787,258.134 835.349,258.431 L835.349,261.15 Q834.724,260.572 834.131,260.306 Q833.537,260.025 832.912,260.025 Q831.568,260.025 830.881,261.103 Q830.193,262.166 830.193,264.259 Q830.193,266.353 830.881,267.431 Q831.568,268.494 832.912,268.494 Q833.537,268.494 834.131,268.228 Q834.724,267.947 835.349,267.369 L835.349,270.088 Z " fill="#000"/><text x="852.881" y="269.294" fill="#000" font-size="14" textLength="51.823">lessons</text><line x1="768.2" y1="280.447" x2="956.885" y2="280.447" style="stroke:#7A7A7A;stroke-width:1.5;"/><text x="773.2" y="297.442" fill="#000" font-size="14" textLength="137.013">+id : bigserial «PK»</text><line x1="768.2" y1="304.744" x2="956.885" y2="304.744" style="stroke:#7A7A7A;stroke-width:1;"/><text x="773.2" y="321.739" fill="#000" font-size="14" textLength="60.744" text-decoration="underline">group_id</text><text x="838.394" y="321.739" fill="#000" font-size="14" textLength="87.896">: bigint «FK»</text><text x="773.2" y="338.036" fill="#000" font-size="14" textLength="66.575" text-decoration="underline">course_id</text><text x="844.225" y="338.036" fill="#000" font-size="14" textLength="87.896">: bigint «FK»</text><text x="773.2" y="354.333" fill="#000" font-size="14" textLength="173.209">start_time : timestamptz</text><text x="773.2" y="370.629" fill="#000" font-size="14" textLength="166.975">end_time : timestamptz</text><text x="773.2" y="386.926" fill="#000" font-size="14" textLength="132.405">room : varchar(64)</text><text x="773.2" y="403.223" fill="#000" font-size="14" textLength="178.685">lesson_type : varchar(32)</text><text x="773.2" y="419.52" fill="#000" font-size="14" textLength="119.335">description : text</text></g><!--link app_user to groups--><!--link groups to courses--><!--link app_user to student--><!--link app_user to student--><g class="link" data-entity-1="ent0001" data-entity-2="ent0003" id="lnk21" data-source-line="95" data-link-type="association"><path d="M196.02,113.337 C219.52,113.337 244.72,113.337 268.21,113.337" style="stroke:#6E6E6E;stroke-width:1;" fill="none" id="app_user-student-1" codeLine="95"/><text x="203.586" y="123.817" fill="#000" font-size="13">1</text><text x="235.767" y="123.752" fill="#000" font-size="13" textLength="24.807">0..1</text></g><!--link groups to group_courses--><!--link groups to group_courses--><g class="link" data-entity-1="ent0002" data-entity-2="ent0006" id="lnk25" data-source-line="102" data-link-type="association"><path d="M195.65,290.057 C215.81,290.057 237.24,290.057 257.77,290.057" style="stroke:#6E6E6E;stroke-width:1;" fill="none" id="groups-group_courses-1" codeLine="102"/><text x="203.495" y="300.131" fill="#000" font-size="13">1</text><text x="226.957" y="304.004" fill="#000" font-size="13" textLength="23.036">0..*</text></g><!--link courses to teacher--><!--link teacher to courses--><g class="link" data-entity-1="ent0004" data-entity-2="ent0005" id="lnk24" data-source-line="100" data-link-type="association"><path d="M469.92,378.767 C489.6,378.767 509.95,378.767 529.04,378.767" style="stroke:#6E6E6E;stroke-width:1;" fill="none" id="teacher-courses" codeLine="100"/><text x="477.536" y="390.11" fill="#000" font-size="13" textLength="23.036">0..*</text><text x="496.686" y="389.318" fill="#000" font-size="13" textLength="24.807">0..1</text></g><!--link student to group_courses--><!--link group_courses to teacher--><!--link group_courses to lessons--><!--link group_courses to lessons--><g class="link" data-entity-1="ent0006" data-entity-2="ent0007" id="lnk29" data-source-line="108" data-link-type="association"><path d="M467.37,262.817 C555.71,262.817 681.06,262.817 766.75,262.817" style="stroke:#6E6E6E;stroke-width:1;stroke-dasharray:7,7;" fill="none" id="group_courses-lessons-1" codeLine="108"/><text x="556.06" y="275.884" fill="#000" font-size="13" textLength="60.442">valid pair</text><text x="475.03" y="274.936" fill="#000" font-size="13">1</text><text x="736.207" y="270.155" fill="#000" font-size="13" textLength="23.036">0..*</text></g><!--link app_user to teacher--><g class="link" data-entity-1="ent0001" data-entity-2="ent0004" id="lnk22" data-source-line="96" data-link-type="association"><path d="M195.93,215.787 C207.8,215.787 215.88,215.787 215.88,215.787 C215.88,215.787 215.88,356.057 215.88,356.057 C215.88,356.057 232.82,356.057 255.19,356.057" style="stroke:#6E6E6E;stroke-width:1;" fill="none" id="app_user-teacher" codeLine="96"/><text x="203.797" y="234.366" fill="#000" font-size="13">1</text><text x="222.825" y="365.733" fill="#000" font-size="13" textLength="24.807">0..1</text></g><!--link groups to student--><g class="link" data-entity-1="ent0002" data-entity-2="ent0003" id="lnk23" data-source-line="98" data-link-type="association"><path d="M195.51,282.127 C218.12,282.127 235.88,282.127 235.88,282.127 C235.88,282.127 235.88,169.927 235.88,169.927 C235.88,169.927 249.68,169.927 268.18,169.927" style="stroke:#6E6E6E;stroke-width:1;" fill="none" id="groups-student" codeLine="98"/><text x="203.344" y="275.374" fill="#000" font-size="13">1</text><text x="237.405" y="184.627" fill="#000" font-size="13" textLength="23.036">0..*</text></g><!--link courses to group_courses--><g class="link" data-entity-1="ent0005" data-entity-2="ent0006" id="lnk26" data-source-line="103" data-link-type="association"><path d="M648.88,339.517 C648.88,314.377 648.88,291.557 648.88,291.557 C648.88,291.557 549.27,291.557 467.55,291.557" style="stroke:#6E6E6E;stroke-width:1;" fill="none" id="courses-group_courses" codeLine="103"/><text x="643.8" y="328.648" fill="#000" font-size="13">1</text><text x="475.013" y="305.513" fill="#000" font-size="13" textLength="23.036">0..*</text></g><!--link groups to lessons--><g class="link" data-entity-1="ent0002" data-entity-2="ent0007" id="lnk27" data-source-line="105" data-link-type="association"><path d="M195.82,317.257 C341.75,317.257 620.38,317.257 766.97,317.257" style="stroke:#6E6E6E;stroke-width:1;" fill="none" id="groups-lessons" codeLine="105"/><text x="203.371" y="329.492" fill="#000" font-size="13">1</text><text x="736.108" y="328.383" fill="#000" font-size="13" textLength="23.036">0..*</text></g><!--link courses to lessons--><g class="link" data-entity-1="ent0005" data-entity-2="ent0007" id="lnk28" data-source-line="106" data-link-type="association"><path d="M707.53,383.357 C726.88,383.357 747.41,383.357 767,383.357" style="stroke:#6E6E6E;stroke-width:1;" fill="none" id="courses-lessons" codeLine="106"/><text x="715.26" y="394.288" fill="#000" font-size="13">1</text><text x="736.14" y="399.337" fill="#000" font-size="13" textLength="23.036">0..*</text></g><g class="legend" data-source-line="110"><rect x="344.409" y="490.381" width="277.066" height="79.188" fill="#DDD" style="stroke:#000;stroke-width:1;" rx="7.5" ry="7.5"/><text x="354.283" y="510.376" fill="#000" font-size="14" textLength="68.551" font-weight="700">Notation</text><text x="474.37" y="510.376" fill="#000" font-size="14" textLength="67.628" font-weight="700">Meaning</text><text x="353.859" y="526.673" fill="#000" font-size="14" textLength="34.754">«PK»</text><text x="473.946" y="526.673" fill="#000" font-size="14" textLength="83.802">Primary key</text><text x="353.859" y="542.97" fill="#000" font-size="14" textLength="34.364">«FK»</text><text x="473.946" y="542.97" fill="#000" font-size="14" textLength="82.093">Foreign key</text><text x="353.859" y="559.267" fill="#000" font-size="14" textLength="111.187">Underlined field</text><text x="473.946" y="559.267" fill="#000" font-size="14" textLength="138.079">Foreign key column</text><line x1="349.409" y1="497.381" x2="616.475" y2="497.381" style="stroke:#000;stroke-width:1;"/><line x1="349.409" y1="513.678" x2="616.475" y2="513.678" style="stroke:#000;stroke-width:1;"/><line x1="349.409" y1="529.975" x2="616.475" y2="529.975" style="stroke:#000;stroke-width:1;"/><line x1="349.409" y1="546.272" x2="616.475" y2="546.272" style="stroke:#000;stroke-width:1;"/><line x1="349.409" y1="562.569" x2="616.475" y2="562.569" style="stroke:#000;stroke-width:1;"/><line x1="349.409" y1="497.381" x2="349.409" y2="562.569" style="stroke:#000;stroke-width:1;"/><line x1="469.496" y1="497.381" x2="469.496" y2="562.569" style="stroke:#000;stroke-width:1;"/><line x1="616.475" y1="497.381" x2="616.475" y2="562.569" style="stroke:#000;stroke-width:1;"/></g><?plantuml-src dLPjRzCm4FwUNs6LBmnewGOT4YgLkfSAD84cRNn2A7BjQslLiIFROUiO_vspuwPfqfQDHPhSUovtZ-yvd-E4aq0kgADJQe7Si0LaD4aap1nncXWnNpZ2XG7cX5R9Gd0WaELkHJB8fc1iQR8E36Ytoi4cTYbKJWtDY5rGhk-4cfCPbHPgY1GAl3VHnYrq3M2IMZjspeXfuU0Bq-f6F03frrmup6WXtItSkx4KSvM1SiGJJffnoE-4uDyPPSkvqONYvrfgGrvCJlmJiCz0EPYsn_dbuFoYV5iRz8Zs3sF_1FlO67qNpQUN_WdcYLQkj9v9Z5hPRjmA2vrBAbGjxEr2iAK2f7hS6oH_agJatQ5vdXOMJ8TGIzO_o728CaaOZSB6NXF1oKSo5NF419K8Nr-DHeXqk_WFTHGIyL_Ki0KrBqy6WoCqvnZ_3dFNaED-toD68y6QzTGRPy9ObogQrQ7Jznv2fdiGK9vc8ASnAFKxPWQe0vvIXsOdCh2EOXyz8CH1maveKmylJcv3DShbyshHO1bByOIyrXKSsoiaZkjMvc4n4dpujXYL14HmkRvwGoOr1kWKYATjr-W62WMGlfdJ5L237WW_ZQK3YkUsR9Qu_Z-MbE5fo0HB3LNBbgnwDXEihVOJ239T60kbVd7zF06PvlN4xqwE3gXgcH6v7rUU3qw9ilonCFi4QFHQMgUyPTbLsNtIrkeR_CeGXnmtD2HE1QrA0d7zl9hzk-KECOekgALngLUrTMn1yTs0qJfhJukmXJGC_QQGEoJ3EbHZh_i3xnWyUZ_3RTID4o29Ww29HfdmCeZdjN8eycurIvDjJRTyOlprITh2gkXxtlVtK7SzAlOvHQOnWRzjItdRBD8gNrMDpd47zIMTVg-7gtMcFN2L8XQhXhxQl5njDTetxszlj_d-DiNrDW_vx8uJzxydmXfjLDCxzNeDfz1Q4ez5JaKex1ox56yXvtI6ZVRuYNpJZeP6m_LNl9hyrycZX-BfmSMr4HarAxA4LGLDIcYY3U0dHmtwhl0Qzvyp7EzAaBpXnBGiCaoM88-IpLy0?></g></svg>